<svg width="186" height="32" viewBox="0 0 186 32" fill="none" xmlns="http://www.w3.org/2000/svg">
<path d="M16 32C24.8366 32 32 24.8366 32 16C32 7.16344 24.8366 0 16 0C7.16344 0 0 7.16344 0 16C0 24.8366 7.16344 32 16 32Z" fill="#333333"/>
<path d="M24.9105 23.5H7.08899V24H24.9105V23.5Z" fill="white"/>
<path d="M22.169 25H9.83099V25.5H22.169V25Z" fill="white"/>
<path d="M21.7735 6.26999L13.4365 7.95499V15.928C12.989 15.623 12.412 15.439 11.7765 15.439C10.3675 15.439 9.22598 16.3465 9.22598 17.467C9.22598 18.5875 10.3675 19.495 11.7765 19.495C13.1855 19.495 14.327 18.5875 14.327 17.467V11.2915L20.8035 10.2715V14.946C20.3685 14.674 19.821 14.507 19.223 14.507C17.814 14.507 16.6725 15.4145 16.6725 16.535C16.6725 17.6555 17.814 18.563 19.223 18.563C20.632 18.563 21.7735 17.6555 21.7735 16.535C21.7735 16.4595 21.765 16.3805 21.757 16.309H21.7735V6.26999Z" fill="#E97B89"/>
<path d="M50.2163 19.3279H50.3471L53.7497 11.459H56.5634V20.6393H54.6658V13.2951H54.5349L51.3941 20.6393H49.1693L46.0285 13.2951H45.8976V20.6393H44V11.459H46.8137L50.2163 19.3279Z" fill="white"/>
<path d="M62.3819 23H60.5498L61.4658 20.6393H60.3535L57.6052 13.8197H59.4374L61.7276 19.5246H61.8584L64.0178 13.8197H65.8499L62.3819 23Z" fill="white"/>
<path d="M72.7318 15.459C72.7318 16.3158 72.1865 16.8404 71.0959 17.0328C71.7241 17.129 72.1952 17.3344 72.5093 17.6492C72.8321 17.9552 72.9935 18.3399 72.9935 18.8033C72.9935 19.1005 72.9237 19.376 72.7841 19.6295C72.6533 19.8831 72.4395 20.106 72.1429 20.2984C71.8462 20.482 71.4667 20.6262 71.0043 20.7311C70.5419 20.8448 69.9835 20.9016 69.3292 20.9016C68.6051 20.9016 67.9463 20.8055 67.3531 20.6131C66.7685 20.412 66.293 20.1803 65.9266 19.918L66.4501 19.1311C66.8165 19.3585 67.2178 19.5596 67.6541 19.7344C68.0903 19.9005 68.6051 19.9836 69.1983 19.9836C69.8876 19.9836 70.3631 19.8743 70.6248 19.6557C70.8953 19.4284 71.0305 19.1005 71.0305 18.6721C71.0305 18.3749 70.9214 18.1257 70.7033 17.9246C70.4852 17.7235 70.1798 17.623 69.7872 17.623H67.497V16.7049H69.5255C69.9181 16.7049 70.2235 16.6044 70.4416 16.4033C70.6597 16.1934 70.7687 15.9224 70.7687 15.5902C70.7687 15.2579 70.651 14.9913 70.4154 14.7902C70.1886 14.5803 69.8265 14.4754 69.3292 14.4754C68.7708 14.4754 68.2735 14.5628 67.8373 14.7377C67.4098 14.9038 67.0128 15.1005 66.6464 15.3279L66.1229 14.541C66.4893 14.2787 66.9648 14.0514 67.5494 13.859C68.1339 13.6579 68.7708 13.5574 69.4601 13.5574C70.0184 13.5574 70.5026 13.6098 70.9127 13.7148C71.3228 13.8197 71.663 13.9639 71.9335 14.1475C72.2039 14.3224 72.4046 14.5235 72.5355 14.7508C72.6663 14.9781 72.7318 15.2142 72.7318 15.459Z" fill="white"/>
<path d="M82.2146 20.6393V13.8197H84.0468V20.6393H82.2146ZM78.0268 16.1803C79.1436 16.1803 79.955 16.3814 80.461 16.7836C80.9757 17.177 81.2331 17.7191 81.2331 18.4098C81.2331 19.1005 80.9757 19.647 80.461 20.0492C79.955 20.4426 79.1436 20.6393 78.0268 20.6393H74.4934V13.8197H76.3255V16.1803H78.0268ZM76.3255 17.0984V19.7213H78.0268C78.4194 19.7213 78.7248 19.612 78.9429 19.3934C79.161 19.1661 79.2701 18.8383 79.2701 18.4098C79.2701 17.9814 79.161 17.6579 78.9429 17.4393C78.7248 17.212 78.4194 17.0984 78.0268 17.0984H76.3255Z" fill="white"/>
<path d="M89.0868 17.6885H87.7126V20.6393H85.8805V13.8197H87.7126V16.7705H89.0868L91.1152 13.8197H93.0782L90.788 17.1639L93.2091 20.6393H91.1152L89.0868 17.6885Z" fill="white"/>
<path d="M95.6414 18.4754C95.6414 19.306 96.1431 19.7213 97.1464 19.7213H98.9786V17.2295H97.1464C96.1431 17.2295 95.6414 17.6448 95.6414 18.4754ZM98.9786 16.3115C98.9786 15.682 98.8128 15.2186 98.4813 14.9213C98.1585 14.624 97.7353 14.4754 97.2119 14.4754C96.8192 14.4754 96.4354 14.5366 96.0602 14.659C95.6851 14.7727 95.3492 14.9301 95.0525 15.1311L94.5945 14.3443C94.7864 14.2131 94.9958 14.0995 95.2226 14.0033C95.4582 13.9071 95.6981 13.8284 95.9424 13.7672C96.1867 13.6973 96.4266 13.6448 96.6622 13.6098C96.9065 13.5749 97.1333 13.5574 97.3427 13.5574C97.9011 13.5574 98.394 13.623 98.8215 13.7541C99.249 13.8852 99.6111 14.0732 99.9077 14.318C100.204 14.5628 100.427 14.8557 100.575 15.1967C100.732 15.529 100.811 15.9005 100.811 16.3115V20.6393H97.1464C95.9599 20.6393 95.0831 20.4601 94.516 20.1016C93.9576 19.7432 93.6784 19.2011 93.6784 18.4754C93.6784 17.7497 93.9576 17.2076 94.516 16.8492C95.0831 16.4907 95.9599 16.3115 97.1464 16.3115H98.9786Z" fill="white"/>
<path d="M101.852 19.918H102.244C102.358 19.918 102.462 19.8962 102.558 19.8525C102.654 19.8 102.737 19.7169 102.807 19.6033C102.885 19.4896 102.946 19.3366 102.99 19.1443C103.042 18.9519 103.077 18.7071 103.095 18.4098L103.357 13.8197H109.638V20.6393H107.806V14.7377H105.058L104.862 18.4098C104.818 19.2929 104.609 19.918 104.233 20.2852C103.867 20.6525 103.357 20.8361 102.702 20.8361C102.493 20.8361 102.301 20.8142 102.126 20.7705C102.03 20.753 101.939 20.7311 101.852 20.7049V19.918Z" fill="white"/>
<path d="M115.261 16.1803C116.378 16.1803 117.19 16.3814 117.696 16.7836C118.21 17.177 118.468 17.7191 118.468 18.4098C118.468 19.1005 118.21 19.647 117.696 20.0492C117.19 20.4426 116.378 20.6393 115.261 20.6393H111.466V13.8197H113.298V16.1803H115.261ZM113.298 17.0984V19.7213H115.261C115.654 19.7213 115.959 19.612 116.178 19.3934C116.396 19.1661 116.505 18.8383 116.505 18.4098C116.505 17.9814 116.396 17.6579 116.178 17.4393C115.959 17.212 115.654 17.0984 115.261 17.0984H113.298Z" fill="white"/>
<path d="M127.035 13.8197V20.6393H125.203V17.623H121.669V20.6393H119.837V13.8197H121.669V16.7049H125.203V13.8197H127.035Z" fill="white"/>
<path d="M136.594 20.6393V13.8197H138.426V20.6393H136.594ZM132.406 16.1803C133.523 16.1803 134.334 16.3814 134.84 16.7836C135.355 17.177 135.613 17.7191 135.613 18.4098C135.613 19.1005 135.355 19.647 134.84 20.0492C134.334 20.4426 133.523 20.6393 132.406 20.6393H128.873V13.8197H130.705V16.1803H132.406ZM130.705 17.0984V19.7213H132.406C132.799 19.7213 133.104 19.612 133.322 19.3934C133.54 19.1661 133.65 18.8383 133.65 18.4098C133.65 17.9814 133.54 17.6579 133.322 17.4393C133.104 17.212 132.799 17.0984 132.406 17.0984H130.705Z" fill="white"/>
<path d="M143.793 13.0328C142.973 13.0328 142.354 12.8448 141.935 12.4689C141.516 12.0842 141.307 11.5945 141.307 11H142.812C142.812 11.3322 142.908 11.6033 143.1 11.8131C143.3 12.0142 143.532 12.1148 143.793 12.1148C144.055 12.1148 144.282 12.0142 144.474 11.8131C144.675 11.6033 144.775 11.3322 144.775 11H146.28C146.28 11.5945 146.07 12.0842 145.652 12.4689C145.233 12.8448 144.613 13.0328 143.793 13.0328ZM147.589 13.8197V20.6393H145.756V15.5246H145.626L142.616 20.6393H140.26V13.8197H142.092V18.9344H142.223L145.233 13.8197H147.589Z" fill="white"/>
<path d="M157.663 13.5574C157.942 13.5574 158.221 13.5836 158.5 13.6361C158.78 13.6798 159.046 13.7454 159.299 13.8328C159.56 13.9115 159.8 14.012 160.019 14.1344C160.245 14.2568 160.442 14.3923 160.607 14.541L160.084 15.3279C159.726 15.0568 159.36 14.847 158.985 14.6984C158.618 14.5497 158.221 14.4754 157.794 14.4754C157.48 14.4754 157.192 14.5279 156.93 14.6328C156.668 14.729 156.441 14.8907 156.249 15.118C156.058 15.3366 155.905 15.6208 155.791 15.9705C155.687 16.3202 155.634 16.7399 155.634 17.2295C155.634 17.7191 155.687 18.1388 155.791 18.4885C155.905 18.8383 156.062 19.1268 156.263 19.3541C156.463 19.5727 156.703 19.7344 156.982 19.8393C157.27 19.9355 157.584 19.9836 157.925 19.9836C158.352 19.9836 158.749 19.9093 159.116 19.7607C159.491 19.612 159.857 19.4022 160.215 19.1311L160.738 19.918C160.573 20.0667 160.376 20.2022 160.149 20.3246C159.931 20.447 159.691 20.5519 159.43 20.6393C159.177 20.718 158.91 20.7792 158.631 20.823C158.352 20.8754 158.073 20.9016 157.794 20.9016C157.174 20.9016 156.607 20.8186 156.092 20.6525C155.586 20.4951 155.155 20.2634 154.797 19.9574C154.439 19.6426 154.16 19.2579 153.959 18.8033C153.767 18.3486 153.671 17.824 153.671 17.2295C153.671 16.6437 153.767 16.1235 153.959 15.6689C154.16 15.2055 154.435 14.8208 154.784 14.5148C155.133 14.2 155.552 13.9639 156.04 13.8066C156.529 13.6404 157.07 13.5574 157.663 13.5574Z" fill="white"/>
<path d="M163.363 18.4754C163.363 19.306 163.865 19.7213 164.868 19.7213H166.7V17.2295H164.868C163.865 17.2295 163.363 17.6448 163.363 18.4754ZM166.7 16.3115C166.7 15.682 166.535 15.2186 166.203 14.9213C165.88 14.624 165.457 14.4754 164.934 14.4754C164.541 14.4754 164.157 14.5366 163.782 14.659C163.407 14.7727 163.071 14.9301 162.774 15.1311L162.316 14.3443C162.508 14.2131 162.718 14.0995 162.945 14.0033C163.18 13.9071 163.42 13.8284 163.664 13.7672C163.909 13.6973 164.149 13.6448 164.384 13.6098C164.628 13.5749 164.855 13.5574 165.065 13.5574C165.623 13.5574 166.116 13.623 166.543 13.7541C166.971 13.8852 167.333 14.0732 167.63 14.318C167.926 14.5628 168.149 14.8557 168.297 15.1967C168.454 15.529 168.533 15.9005 168.533 16.3115V20.6393H164.868C163.682 20.6393 162.805 20.4601 162.238 20.1016C161.679 19.7432 161.4 19.2011 161.4 18.4754C161.4 17.7497 161.679 17.2076 162.238 16.8492C162.805 16.4907 163.682 16.3115 164.868 16.3115H166.7Z" fill="white"/>
<path d="M173.827 13.0328C173.007 13.0328 172.387 12.8448 171.968 12.4689C171.55 12.0842 171.34 11.5945 171.34 11H172.845C172.845 11.3322 172.941 11.6033 173.133 11.8131C173.334 12.0142 173.565 12.1148 173.827 12.1148C174.088 12.1148 174.315 12.0142 174.507 11.8131C174.708 11.6033 174.808 11.3322 174.808 11H176.313C176.313 11.5945 176.104 12.0842 175.685 12.4689C175.266 12.8448 174.647 13.0328 173.827 13.0328ZM177.622 13.8197V20.6393H175.79V15.5246H175.659L172.649 20.6393H170.293V13.8197H172.125V18.9344H172.256L175.266 13.8197H177.622Z" fill="white"/>
<path d="M186 14.7377H183.252V20.6393H181.42V14.7377H178.671V13.8197H186V14.7377Z" fill="white"/>
</svg>
