<svg width="30" height="30" viewBox="0 0 30 30" fill="none" xmlns="http://www.w3.org/2000/svg">
<path fill-rule="evenodd" clip-rule="evenodd" d="M15.0015 0.000610352L15.9364 6.15357L16.934 12.7105C16.9621 12.8939 17.1062 13.038 17.2897 13.0659L23.8466 14.0634L29.9995 14.9983L23.8466 15.9367L17.29 16.9343H17.2897C17.1062 16.9624 16.9621 17.1065 16.9343 17.29L15.9367 23.8469L15.0018 29.9998L14.0634 23.8469V23.8466L13.0659 17.29C13.0377 17.1065 12.8939 16.9624 12.7102 16.9343L6.15357 15.9367L0.000610352 14.9983L6.15357 14.0635L12.7105 13.0659C12.8939 13.0381 13.038 12.8939 13.0659 12.7105L14.0634 6.15388V6.15358L15.0019 0.000624223L15.0015 0.000610352Z" fill="url(#paint0_linear_30_11)"/>
<defs>
<linearGradient id="paint0_linear_30_11" x1="15.0001" y1="0.000610352" x2="15.0001" y2="29.9998" gradientUnits="userSpaceOnUse">
<stop stop-color="#08FCFE"/>
<stop offset="1" stop-color="#F0A0EE"/>
</linearGradient>
</defs>
</svg>
