<svg width="32" height="32" viewBox="0 0 32 32" fill="none" xmlns="http://www.w3.org/2000/svg">
<rect width="32" height="32" rx="16" fill="white"/>
<path d="M23.981 11.4029C22.8663 11.4028 21.7974 10.96 21.0092 10.1718C20.221 9.38365 19.7783 8.31466 19.7783 7.20001H16.7756V18.9579C16.7751 19.494 16.6058 20.0163 16.2918 20.4508C15.9778 20.8853 15.5351 21.2099 15.0263 21.3787C14.5175 21.5475 13.9684 21.5519 13.457 21.3913C12.9456 21.2306 12.4977 20.913 12.1768 20.4836C11.8559 20.0542 11.6783 19.5347 11.6692 18.9987C11.6601 18.4627 11.8199 17.9374 12.126 17.4973C12.4321 17.0572 12.869 16.7246 13.3746 16.5467C13.8803 16.3687 14.4292 16.3544 14.9434 16.5058V13.587C13.8505 13.4396 12.7387 13.6292 11.7564 14.1303C10.7741 14.6315 9.96809 15.4204 9.44596 16.3917C8.92383 17.363 8.71044 18.4705 8.8343 19.5663C8.95816 20.662 9.41336 21.6939 10.1391 22.5242C10.8649 23.3544 11.8267 23.9435 12.8961 24.2128C13.9655 24.482 15.0915 24.4186 16.1239 24.031C17.1563 23.6434 18.0459 22.9501 18.6739 22.0436C19.3019 21.1372 19.6384 20.0607 19.6384 18.9579L19.726 13.0147C20.9597 13.9203 22.4508 14.4077 23.9813 14.4054L23.981 11.4029Z" fill="#121212"/>
</svg>
