<?xml version="1.0" standalone="no"?>
<!DOCTYPE svg PUBLIC "-//W3C//DTD SVG 20010904//EN"
 "http://www.w3.org/TR/2001/REC-SVG-20010904/DTD/svg10.dtd">
<svg version="1.0" xmlns="http://www.w3.org/2000/svg"
 width="700.000000pt" height="700.000000pt" viewBox="0 0 700.000000 700.000000"
 preserveAspectRatio="xMidYMid meet">
<metadata>
Created by potrace 1.14, written by Peter Selinger 2001-2017
</metadata>
<g transform="translate(0.000000,700.000000) scale(0.100000,-0.100000)"
fill="#000000" stroke="none">
<path d="M3335 6994 c-781 -48 -1465 -311 -2054 -791 -136 -111 -373 -348
-484 -484 -379 -465 -633 -1012 -736 -1585 -41 -227 -54 -380 -54 -634 0 -254
13 -407 54 -634 197 -1093 928 -2045 1942 -2526 361 -171 724 -272 1157 -321
157 -18 557 -15 725 5 433 53 818 166 1181 349 916 460 1585 1299 1829 2292
70 286 98 522 98 835 0 549 -108 1027 -344 1518 -172 359 -387 661 -678 953
-571 570 -1276 910 -2081 1003 -128 15 -448 26 -555 20z m1423 -2536 l-3
-1173 -29 -60 c-104 -212 -396 -329 -669 -269 -165 36 -310 142 -373 269 -26
54 -29 70 -29 160 0 91 3 105 30 160 59 117 177 208 335 256 147 46 357 26
488 -46 l42 -24 0 510 c0 280 -2 509 -5 509 -7 0 -1264 -198 -1342 -211 l-63
-11 0 -662 c0 -384 -5 -690 -10 -730 -27 -183 -172 -324 -391 -381 -80 -21
-234 -21 -321 -1 -157 36 -300 142 -361 265 -29 60 -32 74 -32 161 0 122 26
183 117 273 113 112 258 167 437 167 112 0 187 -17 289 -65 l72 -34 0 869 c0
479 1 870 3 870 1 1 407 83 902 184 495 101 903 184 908 185 4 1 6 -527 5
-1171z m692 -2653 l0 -55 -1950 0 -1950 0 0 55 0 55 1950 0 1950 0 0 -55z
m-600 -330 l0 -55 -1350 0 -1350 0 0 55 0 55 1350 0 1350 0 0 -55z"/>
</g>
</svg>
